<svg xmlns="http://www.w3.org/2000/svg" width="512" height="512" viewBox="0 0 512 512" role="img" aria-label="Bob Reviewer agent">
  <rect width="512" height="512" rx="104" fill="#f7f4ff"/>
  <path d="M148 190c0-64 48-116 108-116s108 52 108 116v24H148v-24Z" fill="#8a3ffc" stroke="#262626" stroke-width="12"/>
  <path d="M206 130V70h100v60" fill="#e0e0e0" stroke="#262626" stroke-linecap="round" stroke-linejoin="round" stroke-width="12"/>
  <rect x="112" y="184" width="288" height="170" rx="52" fill="#e0e0e0" stroke="#262626" stroke-width="12"/>
  <rect x="138" y="210" width="236" height="118" rx="36" fill="#f4f4f4" stroke="#262626" stroke-width="8"/>
  <circle cx="202" cy="268" r="28" fill="#262626"/>
  <circle cx="310" cy="268" r="28" fill="#262626"/>
  <circle cx="211" cy="258" r="8" fill="#fff"/>
  <circle cx="319" cy="258" r="8" fill="#fff"/>
  <path d="M226 308c20 12 40 12 60 0" fill="none" stroke="#262626" stroke-linecap="round" stroke-width="10"/>
  <rect x="306" y="338" width="116" height="120" rx="20" fill="#fff" stroke="#262626" stroke-width="10"/>
  <path d="M336 382l18 18 36-44M336 425h50" fill="none" stroke="#8a3ffc" stroke-linecap="round" stroke-linejoin="round" stroke-width="13"/>
</svg>
